<svg version="1.1" xmlns="http://www.w3.org/2000/svg" xmlns:xlink="http://www.w3.org/1999/xlink" width="132" height="164" viewBox="0,0,132,164"><defs><linearGradient x1="176.5" y1="180" x2="303.5" y2="180" gradientUnits="userSpaceOnUse" id="color-1"><stop offset="0" stop-color="#ffffff"/><stop offset="1" stop-color="#fb0000"/></linearGradient><linearGradient x1="186.97985" y1="195.94231" x2="299.57079" y2="195.94231" gradientTransform="translate(-330.08084,-265.14) scale(1.76533,1.76533)" gradientUnits="userSpaceOnUse" id="color-2"><stop offset="0" stop-color="#ffffff" stop-opacity="0"/><stop offset="1" stop-color="#ffffff"/></linearGradient></defs><g transform="translate(-174,-98)"><g data-paper-data="{&quot;isPaintingLayer&quot;:true}" fill-rule="nonzero" stroke-linecap="butt" stroke-linejoin="miter" stroke-miterlimit="10" stroke-dasharray="" stroke-dashoffset="0" style="mix-blend-mode: normal"><path d="M176.5,229.5c0,-32.76988 0,-86.99555 0,-105c0,-12.7651 13.20895,-24 24,-24c13.9166,0 52.42267,0 78,0c15.50911,0 25,19.32407 25,27c0,17.46396 0,72.00196 0,103c0,19.47483 -13.20895,29 -24,29c-14.28358,0 -52.3637,0 -78,0c-14.48682,0 -25,-12.51528 -25,-30z" fill="#000000" stroke="url(#color-1)" stroke-width="5"/><text transform="translate(186.97986,150.19303) scale(0.56647,0.56647)" font-size="40" xml:space="preserve" fill="#ff0000" fill-rule="nonzero" stroke="url(#color-2)" stroke-width="1" stroke-linecap="butt" stroke-linejoin="miter" stroke-miterlimit="10" stroke-dasharray="" stroke-dashoffset="0" font-family="Sans Serif" font-weight="normal" text-anchor="start" style="mix-blend-mode: normal"><tspan x="0" dy="0">YOU CAN</tspan><tspan x="0" dy="46.150000000000006px">     NOT </tspan><tspan x="0" dy="46.150000000000006px">  AFFORD</tspan><tspan x="0" dy="46.150000000000006px">THIS SKIN</tspan></text></g></g></svg>