<svg version="1.1" xmlns="http://www.w3.org/2000/svg" xmlns:xlink="http://www.w3.org/1999/xlink" width="43.10289" height="51.18913" viewBox="0,0,43.10289,51.18913"><defs><linearGradient x1="227.73017" y1="175.48158" x2="249.93272" y2="175.48158" gradientUnits="userSpaceOnUse" id="color-1"><stop offset="0" stop-color="#005e02"/><stop offset="1" stop-color="#5aff5f"/></linearGradient></defs><g transform="translate(-217.67196,-152.39589)"><g data-paper-data="{&quot;isPaintingLayer&quot;:true}" fill="#000000" fill-rule="nonzero" stroke="url(#color-1)" stroke-width="2" stroke-linecap="butt" stroke-linejoin="miter" stroke-miterlimit="10" stroke-dasharray="" stroke-dashoffset="0" style="mix-blend-mode: normal"><path d="M227.73017,197.56728c0,0 0,-14.89395 0,-22.28951c0,-7.32762 -8.33333,-21.88188 -8.33333,-21.88188c0,0 21.90432,0 25.88095,0c1.19102,0 13.98827,0 13.98827,0c0,0 -9.33333,22.06457 -9.33333,30.21522c0,5.5394 0,13.95617 0,13.95617l-7.98827,-20.66667c0,0 -2.7908,1.61272 -5.09428,7.59747c-1.49186,3.87603 -3.23905,13.0692 -3.23905,13.0692l-1.66667,-11.33333z"/></g></g></svg>