<svg version="1.1" xmlns="http://www.w3.org/2000/svg" xmlns:xlink="http://www.w3.org/1999/xlink" width="43.10289" height="51.18913" viewBox="0,0,43.10289,51.18913"><defs><linearGradient x1="227.73017" y1="175.48159" x2="249.93272" y2="175.48159" gradientUnits="userSpaceOnUse" id="color-1"><stop offset="0" stop-color="#005e02"/><stop offset="1" stop-color="#5aff5f"/></linearGradient></defs><g transform="translate(-217.67196,-147.37815)"><g data-paper-data="{&quot;isPaintingLayer&quot;:true}" fill="#000000" fill-rule="nonzero" stroke="url(#color-1)" stroke-width="2" stroke-linecap="butt" stroke-linejoin="miter" stroke-miterlimit="10" stroke-dasharray="" stroke-dashoffset="0" style="mix-blend-mode: normal"><path d="M231.94446,164.72922l1.66667,-11.33333c0,0 1.74719,9.19317 3.23905,13.0692c2.30348,5.98475 5.09428,7.59747 5.09428,7.59747l7.98827,-20.66667c0,0 0,8.41677 0,13.95617c0,8.15065 9.33333,30.21522 9.33333,30.21522c0,0 -12.79725,0 -13.98827,0c-3.97663,0 -25.88095,0 -25.88095,0c0,0 8.33333,-14.55426 8.33333,-21.88188c0,-7.39556 0,-22.28951 0,-22.28951z" data-paper-data="{&quot;index&quot;:null}"/></g></g></svg>