<svg version="1.1" xmlns="http://www.w3.org/2000/svg" xmlns:xlink="http://www.w3.org/1999/xlink" width="51.18913" height="43.10289" viewBox="0,0,51.18913,43.10289"><defs><linearGradient x1="239.33145" y1="187.08286" x2="239.33145" y2="164.88031" gradientUnits="userSpaceOnUse" id="color-1"><stop offset="0" stop-color="#005e02"/><stop offset="1" stop-color="#5aff5f"/></linearGradient></defs><g transform="translate(-211.22801,-154.03818)"><g data-paper-data="{&quot;isPaintingLayer&quot;:true}" fill="#000000" fill-rule="nonzero" stroke="url(#color-1)" stroke-width="2" stroke-linecap="butt" stroke-linejoin="miter" stroke-miterlimit="10" stroke-dasharray="" stroke-dashoffset="0" style="mix-blend-mode: normal"><path d="M228.57908,182.86857l-11.33333,-1.66667c0,0 9.19317,-1.74719 13.0692,-3.23905c5.98475,-2.30348 7.59747,-5.09428 7.59747,-5.09428l-20.66667,-7.98827c0,0 8.41677,0 13.95617,0c8.15065,0 30.21522,-9.33333 30.21522,-9.33333c0,0 0,12.79725 0,13.98827c0,3.97663 0,25.88095 0,25.88095c0,0 -14.55426,-8.33333 -21.88188,-8.33333c-7.39556,0 -22.28951,0 -22.28951,0z" data-paper-data="{&quot;index&quot;:null}"/></g></g></svg>