<svg version="1.1" xmlns="http://www.w3.org/2000/svg" xmlns:xlink="http://www.w3.org/1999/xlink" width="99.83334" height="43.82759" viewBox="0,0,99.83334,43.82759"><defs><linearGradient x1="194.33333" y1="181.30843" x2="288.66667" y2="181.30843" gradientUnits="userSpaceOnUse" id="color-1"><stop offset="0" stop-color="#eeb704"/><stop offset="1" stop-color="#ae4918"/></linearGradient><linearGradient x1="203.35057" y1="182.47415" x2="225.26436" y2="182.47415" gradientUnits="userSpaceOnUse" id="color-2"><stop offset="0" stop-color="#facc00"/><stop offset="1" stop-color="#a3361c"/></linearGradient></defs><g transform="translate(-191.33333,-158.08622)"><g data-paper-data="{&quot;isPaintingLayer&quot;:true}" fill-rule="nonzero" stroke-linecap="butt" stroke-linejoin="miter" stroke-miterlimit="10" stroke-dasharray="" stroke-dashoffset="0" style="mix-blend-mode: normal"><path d="M194.33333,186.80843c0,-3.6253 0,-7.28993 0,-9.66667c0,-4.86721 6.60822,-13 12.66667,-13c10.77995,0 46.55444,0 67,0c8.73104,0 14.66667,6.37647 14.66667,12.66667c0,3.68494 0,7.34026 0,9.66667c0,4.61623 -5.48745,12 -13.66667,12c-20.15391,0 -56.65089,0 -67.66667,0c-6.19138,0 -13,-5.78151 -13,-11.66667z" fill="url(#color-1)" stroke="#000000" stroke-width="5"/><g><path d="M203.35057,182.47415c0,-6.05132 4.90557,-10.9569 10.9569,-10.9569c6.05132,0 10.9569,4.90557 10.9569,10.9569c0,6.05132 -4.90557,10.9569 -10.9569,10.9569c-6.05132,0 -10.9569,-4.90557 -10.9569,-10.9569z" fill="url(#color-2)" stroke="#c4a000" stroke-width="4"/><text transform="translate(209.48809,188.16608) scale(0.43579,0.43579)" font-size="40" xml:space="preserve" fill="#000000" fill-rule="nonzero" stroke="none" stroke-width="1" stroke-linecap="butt" stroke-linejoin="miter" stroke-miterlimit="10" stroke-dasharray="" stroke-dashoffset="0" font-family="Sans Serif" font-weight="normal" text-anchor="start" style="mix-blend-mode: normal"><tspan x="0" dy="0">$</tspan></text><path d="M191.33333,201.91381v-43.82759h41v43.82759z" fill="none" stroke="none" stroke-width="0"/></g><text transform="translate(245.33333,190.08621) scale(0.5,0.5)" font-size="40" xml:space="preserve" fill="#000000" fill-rule="nonzero" stroke="none" stroke-width="1" stroke-linecap="butt" stroke-linejoin="miter" stroke-miterlimit="10" stroke-dasharray="" stroke-dashoffset="0" font-family="Pixel" font-weight="normal" text-anchor="start" style="mix-blend-mode: normal"><tspan x="0" dy="0">100</tspan></text></g></g></svg>